# xmcd
#
# Track frame offsets:
# 150
# 19930
# 47961
#
# Disc length: 967 seconds
#
#
# Revision: 0
# Processed by: cddbd v1.5.1PL0 Copyright (c) Steve Scherf et al.
# Submitted via: FreeRIP 2.941 
#
DISCID=2103c503
DTITLE=Nick Cave and The Bad Seeds - Get Ready For Love
DYEAR=2005
DGENRE=Alternative
TTITLE0=Get Ready For Love (Edit)
TTITLE1=Hiding All Away (Live At Maida Vale)
TTITLE2=There She Goes, My Beatiful World (Live At Maida Vale)
EXTD=
EXTT0=
EXTT1=
EXTT2=
PLAYORDER=
